<?xml version="1.0" encoding="iso-8859-1"?>
<!-- Uploaded to: SVG Repo, www.svgrepo.com, Generator: SVG Repo Mixer Tools -->
<svg fill="#000000" version="1.1" id="Layer_1" xmlns="http://www.w3.org/2000/svg" xmlns:xlink="http://www.w3.org/1999/xlink" 
	 viewBox="0 0 511.999 511.999" xml:space="preserve">
<g>
	<g>
		<path d="M466.92,2.867c-8.878-5.531-20.561-2.819-26.095,6.059l-46.787,75.086c12.646,3.372,23.768,10.497,32.115,20.1
			l46.827-75.15C478.512,20.083,475.798,8.401,466.92,2.867z"/>
	</g>
</g>
<g>
	<g>
		<path d="M377.417,210.994c-6.656,0-13.08-1.014-19.128-2.893v47.546c0,10.461,8.481,18.942,18.942,18.942
			c10.461,0,18.942-8.481,18.942-18.942v-47.44C390.234,210.013,383.939,210.994,377.417,210.994z"/>
	</g>
</g>
<g>
	<g>
		<rect x="330.505" y="309.946" width="94.711" height="42.936"/>
	</g>
</g>
<g>
	<g>
		<path d="M320.748,115.474h-84.952v61.878h84.952c-5.039-9.193-7.91-19.737-7.91-30.939S315.709,124.667,320.748,115.474z"/>
	</g>
</g>
<g>
	<g>
		<path d="M462.926,474.115h-37.708V370.564h-94.711v103.551H218.116V107.266c0-38.708-31.378-70.086-70.086-70.086
			s-70.086,31.379-70.086,70.086v366.849H49.075c-10.2,0-18.976,7.838-19.456,18.027c-0.513,10.878,8.155,19.858,18.921,19.858
			H463.46c10.766,0,19.434-8.98,18.921-19.858C481.902,481.953,473.126,474.115,462.926,474.115z"/>
	</g>
</g>
<g>
	<g>
		<circle cx="377.23" cy="146.411" r="46.901"/>
	</g>
</g>
</svg>