<?xml version="1.0" encoding="UTF-8"?>
                      <svg fill="#df870a" xmlns="http://www.w3.org/2000/svg" viewBox="0 0 1080 1080">
                        <g>
                          <polygon points="439 943 587 943 601 929 601 657 425 851 425 929 439 943"/>
                        </g>
                        <g>
                          <polygon points="425 344 425 687 601 496 601 344 741 344 800 280 800 197.19 786 183 240 183 226 197 226 328.74 240 344 425 344"/>
                        </g>
                        <g>
                          <polygon points="797 713 821.22 713 826.61 707.61 826.61 577 797 577 797 713"/>
                        </g>
                        <g>
                          <polygon points="798 501 891 501 896.5 495.5 896.5 449.56 891.47 444.53 798 444.53 798 501"/>
                        </g>
                      </svg>