<svg width="150" height="375" viewBox="0 0 150 375" fill="none" xmlns="http://www.w3.org/2000/svg">
<g filter="url(#filter0_d_854_113)">
<path d="M73.0999 1C72.8762 1 72.6589 1.07504 72.4828 1.21313L63.9428 7.91079C63.814 8.01173 63.7121 8.14271 63.6457 8.29224L62.266 11.4032C62.2094 11.5308 62.1802 11.6689 62.1802 11.8086V33.0327C62.1802 33.1322 62.195 33.2311 62.2242 33.3263L63.7467 38.2849L66.6049 44.3714C66.7722 44.7278 67.1331 44.9528 67.5268 44.9462L89.3953 44.5809C89.941 44.5718 90.3786 44.1269 90.3786 43.5811V40.586C90.3786 40.3663 90.4509 40.1528 90.5844 39.9783L99.1806 28.7421C99.3141 28.5676 99.3864 28.3541 99.3864 28.1345V16.9896C99.3864 16.7997 99.3324 16.6138 99.2306 16.4535L93.9545 8.14496C93.9205 8.09145 93.8815 8.0413 93.838 7.99517L87.5415 1.31414C87.3525 1.11366 87.0892 1 86.8138 1H73.0999Z" fill="#DF870A"/>
<path d="M62.6926 52.3668C62.371 52.3964 62.0835 52.5795 61.9207 52.8584L50.0791 73.1466C50.0525 73.1922 50.0296 73.2398 50.0105 73.2889L47.3496 80.1457C47.3151 80.2345 47.2935 80.3277 47.2855 80.4226L44.5561 112.462L43.0731 119.15C43.0193 119.393 43.0577 119.646 43.1807 119.862L44.116 121.502C44.367 121.943 44.9077 122.125 45.3744 121.928L62.1802 114.817L66.3204 112.931C66.4313 112.881 66.5507 112.851 66.6724 112.843L72.7546 112.462L78.7971 112.841C78.9445 112.85 79.088 112.892 79.2173 112.963L101.037 124.989C101.703 125.357 102.52 124.874 102.52 124.113V122.563C102.52 122.374 102.573 122.189 102.674 122.03L111.765 107.605C111.866 107.445 111.919 107.26 111.919 107.071V100.907C111.919 100.763 111.888 100.62 111.827 100.489L102.52 80.2796L99.5343 75.4182C99.4376 75.2608 99.3864 75.0796 99.3864 74.8949V69.6832C99.3864 69.4307 99.4819 69.1875 99.6538 69.0025L109.14 58.7924C109.566 58.3333 109.47 57.5996 108.94 57.2656L96.5403 49.455C96.3541 49.3377 96.1346 49.2851 95.9155 49.3053L62.6926 52.3668Z" fill="#DF870A"/>
<path d="M48.3258 61.6279C49.1572 60.8606 50.4233 61.8471 49.8824 62.8408L41.1314 78.9182C41.0654 79.0395 41.0252 79.1732 41.0134 79.3108L37.9247 115.293C37.9074 115.494 37.8296 115.686 37.7014 115.842L23.6342 132.987C23.4875 133.166 23.4073 133.39 23.4073 133.621V141.052C23.4073 141.34 23.2831 141.614 23.0666 141.804L20.4904 144.063C20.3491 144.187 20.2456 144.348 20.1917 144.528L15.6063 159.845C15.5851 159.916 15.5718 159.989 15.5667 160.062L14.4293 176.399C14.4103 176.673 14.5046 176.943 14.6903 177.145L22.9537 186.146C23.2281 186.445 23.2947 186.88 23.1222 187.247L20.3316 193.19C20.2935 193.271 20.2446 193.346 20.1863 193.414L18.2236 195.709C18.0337 195.931 17.756 196.059 17.4637 196.059H10.6876C10.3203 196.059 9.98254 195.858 9.80788 195.535L5.12029 186.862C5.04134 186.716 5 186.553 5 186.387V138.212C5 138.055 5.03698 137.9 5.10795 137.76L17.8163 112.675C17.8873 112.535 17.9243 112.381 17.9243 112.224V105.279C17.9243 105.1 17.9724 104.924 18.0637 104.77L37.8235 71.3788C37.873 71.2952 37.9345 71.2192 38.0059 71.1533L48.3258 61.6279Z" fill="#DF870A"/>
<path d="M43.5792 130.643C43.2204 130.805 42.9902 131.154 42.9791 131.548C42.8573 135.905 41.6947 149.989 41.0667 157.192C41.0438 157.455 41.1259 157.711 41.2945 157.913L42.6897 159.591C42.8797 159.819 43.1614 159.952 43.4586 159.952H56.7286C56.9614 159.952 57.1869 160.033 57.3662 160.181L65.8692 167.22C66.0177 167.343 66.1274 167.506 66.1853 167.69L68.2261 174.166C68.3573 174.582 68.7433 174.866 69.1798 174.866H76.2914C76.7458 174.866 77.1431 174.559 77.2586 174.12L78.9282 167.762C78.9881 167.534 79.1265 167.334 79.3191 167.198L89.3361 160.134C89.5048 160.015 89.7061 159.952 89.9124 159.952H101.52C102.072 159.952 102.52 159.504 102.52 158.952V135.386C102.52 135.042 102.343 134.722 102.052 134.539L82.7897 122.428C82.6303 122.327 82.4458 122.274 82.2574 122.274H62.3948C62.2533 122.274 62.1134 122.304 61.9844 122.362L43.5792 130.643Z" fill="#DF870A"/>
<path d="M40.2217 168.586C39.774 168.586 39.3808 168.884 39.2593 169.315L34.3931 186.57C34.38 186.616 34.3702 186.664 34.364 186.712L32.0235 204.694V253.36V329.249C32.0235 329.414 31.9828 329.576 31.9051 329.721L23.4073 345.591L20.8367 350.099C20.5383 350.623 20.767 351.289 21.324 351.519L26.3507 353.593C26.7061 353.74 27.1141 353.67 27.4002 353.413L45.0725 337.548C45.4485 337.211 45.5136 336.646 45.2243 336.231L43.2041 333.339C43.0657 333.141 43.0038 332.9 43.0296 332.66L45.7172 307.65C45.7264 307.565 45.7466 307.481 45.7772 307.401L50.7568 294.35C50.8002 294.236 50.8225 294.115 50.8225 293.993V261.809C50.8225 261.672 50.8503 261.538 50.9043 261.413L57.0888 247.081L60.5451 238.229C60.5903 238.113 60.6136 237.99 60.6136 237.865V226.118C60.6136 225.966 60.6481 225.816 60.7144 225.68L68.3456 210.003C68.412 209.867 68.4465 209.717 68.4465 209.565V183.779C68.4465 183.596 68.3966 183.417 68.3022 183.261L60.8038 170.863C60.681 170.66 60.49 170.507 60.2649 170.432L54.8931 168.638C54.791 168.603 54.684 168.586 54.5763 168.586H40.2217Z" fill="#DF870A"/>
<path d="M103.463 168.213C103.37 167.745 102.96 167.409 102.483 167.409H92.36C92.0944 167.409 91.8397 167.514 91.6521 167.702L84.6913 174.678C84.5685 174.801 84.4799 174.954 84.4342 175.122L83.4251 178.83C83.363 179.058 83.2222 179.256 83.0275 179.39L77.5324 183.176C77.2412 183.377 77.0777 183.716 77.1021 184.069L79.0123 211.635C79.018 211.717 79.0338 211.798 79.0592 211.876L91.8961 251.247C91.9286 251.347 91.9766 251.441 92.0384 251.526L102.328 265.656C102.452 265.827 102.52 266.033 102.52 266.245V279.525C102.52 279.612 102.531 279.698 102.553 279.782L105.653 291.43L110.352 312.231L115.802 332.907C115.824 332.99 115.836 333.076 115.836 333.162V345.514C115.836 345.565 115.832 345.617 115.824 345.668L113.889 358.074C113.881 358.125 113.877 358.176 113.877 358.228V364.847C113.877 365.455 114.416 365.923 115.019 365.837L124.495 364.48C124.72 364.448 124.928 364.34 125.084 364.173L130.329 358.566C130.57 358.309 130.658 357.943 130.559 357.604L128.016 348.868C127.99 348.777 127.976 348.683 127.976 348.589V335.737C127.976 335.511 127.899 335.291 127.761 335.112C126.67 333.694 124.843 330.968 124.843 329.5V303.989C124.321 298.233 123.59 286.328 124.843 284.758C126.087 283.2 123.577 275.845 122.135 272.28C122.112 272.225 122.086 272.173 122.054 272.123L119.503 268.106C119.409 267.959 119.356 267.79 119.348 267.616L117.794 234.129V223.307C117.794 223.196 117.775 223.086 117.739 222.982L113.877 211.758L110.407 201.712C110.371 201.607 110.352 201.497 110.352 201.386V191.923C110.352 191.803 110.331 191.685 110.289 191.572L105.681 179.258C105.662 179.208 105.647 179.156 105.637 179.104L103.463 168.213Z" fill="#DF870A"/>
<path d="M118.473 61.4858C118.077 61.2306 117.556 61.2865 117.223 61.6201L107.903 70.9599C107.716 71.1474 107.611 71.4014 107.611 71.6663V77.6819C107.611 77.8415 107.649 77.9987 107.722 78.1405L119.249 100.472C119.322 100.614 119.36 100.771 119.36 100.931V109.01C119.36 109.214 119.422 109.412 119.538 109.579L132.552 128.375C132.634 128.493 132.689 128.627 132.715 128.768L137.36 154.762C137.371 154.82 137.376 154.879 137.376 154.938V174.414C137.376 174.701 137.253 174.974 137.037 175.164L127.923 183.201C127.708 183.391 127.585 183.664 127.585 183.951V185.64C127.585 186.192 128.033 186.64 128.585 186.64H128.935C129.487 186.64 129.935 187.088 129.935 187.64V192.312C129.935 192.864 130.382 193.312 130.935 193.312H142.971C143.377 193.312 143.743 193.066 143.897 192.691L149.852 178.143C149.89 178.052 149.913 177.955 149.922 177.857L153.042 144.253L154.955 131.212C154.984 131.014 154.954 130.812 154.867 130.632L143.681 107.44C143.655 107.387 143.634 107.332 143.618 107.275L140.148 94.9115C140.128 94.8381 140.099 94.7673 140.062 94.7006L131.564 79.2156C131.522 79.1403 131.491 79.0599 131.47 78.9766L128.856 68.4971C128.794 68.2503 128.641 68.0362 128.427 67.8985L118.473 61.4858Z" fill="#FF0000" fill-opacity="0.15"/>
<path d="M124.843 329.5C124.843 330.968 126.67 333.694 127.761 335.112C127.899 335.291 127.976 335.511 127.976 335.737V348.589C127.976 348.683 127.99 348.777 128.016 348.868L130.559 357.604C130.658 357.943 130.57 358.309 130.329 358.566L125.084 364.173C124.928 364.339 124.72 364.448 124.495 364.48L115.019 365.837C114.416 365.923 113.877 365.455 113.877 364.847V358.228C113.877 358.176 113.881 358.125 113.889 358.074L115.824 345.668C115.832 345.617 115.836 345.566 115.836 345.514V333.162C115.836 333.076 115.824 332.99 115.802 332.907L110.352 312.231L105.653 291.43L102.553 279.782C102.531 279.698 102.52 279.612 102.52 279.525V266.245C102.52 266.033 102.452 265.827 102.328 265.656L92.0384 251.526C91.9766 251.441 91.9286 251.347 91.8961 251.247L79.0592 211.876C79.0338 211.798 79.018 211.717 79.0123 211.635L77.1021 184.069C77.0777 183.716 77.2412 183.377 77.5324 183.176L83.0275 179.39C83.2222 179.256 83.363 179.058 83.4251 178.83L84.4342 175.122C84.4799 174.954 84.5685 174.801 84.6913 174.678L91.6521 167.702C91.8397 167.514 92.0944 167.409 92.36 167.409H102.483C102.96 167.409 103.37 167.745 103.463 168.213L105.637 179.104C105.647 179.156 105.662 179.208 105.681 179.258L110.289 191.572C110.331 191.685 110.352 191.803 110.352 191.923V201.386C110.352 201.497 110.371 201.607 110.407 201.712L113.877 211.758L117.739 222.982C117.775 223.086 117.794 223.196 117.794 223.307V234.129L119.348 267.616C119.356 267.79 119.409 267.959 119.503 268.106L122.054 272.123C122.086 272.173 122.112 272.225 122.135 272.28C123.577 275.845 126.087 283.2 124.843 284.758C123.59 286.328 124.321 298.233 124.843 303.989M124.843 329.5C124.843 327.93 124.843 311.839 124.843 303.989M124.843 329.5V303.989M63.7467 38.2849L62.2242 33.3263C62.195 33.2311 62.1802 33.1322 62.1802 33.0327V11.8086C62.1802 11.6689 62.2094 11.5308 62.266 11.4032L63.6457 8.29224C63.7121 8.14271 63.814 8.01173 63.9428 7.91079L72.4828 1.21313C72.6589 1.07504 72.8762 1 73.0999 1H86.8138C87.0893 1 87.3525 1.11366 87.5415 1.31414L93.838 7.99517C93.8815 8.0413 93.9205 8.09145 93.9545 8.14496L99.2306 16.4535C99.3324 16.6138 99.3864 16.7997 99.3864 16.9896V28.1345C99.3864 28.3541 99.3141 28.5676 99.1806 28.7421L90.5844 39.9783C90.4509 40.1528 90.3786 40.3663 90.3786 40.586V43.5811C90.3786 44.1269 89.941 44.5718 89.3953 44.5809L67.5268 44.9462C67.1331 44.9528 66.7722 44.7278 66.6049 44.3714L63.7467 38.2849ZM44.5561 112.462L47.2855 80.4226C47.2935 80.3277 47.3151 80.2345 47.3496 80.1457L50.0105 73.2889C50.0296 73.2398 50.0525 73.1922 50.0791 73.1466L61.9207 52.8584C62.0835 52.5795 62.371 52.3964 62.6926 52.3668L95.9155 49.3053C96.1345 49.2851 96.3541 49.3377 96.5402 49.455L108.94 57.2656C109.47 57.5996 109.566 58.3333 109.14 58.7924L99.6538 69.0025C99.4819 69.1875 99.3864 69.4307 99.3864 69.6832V74.8949C99.3864 75.0796 99.4376 75.2608 99.5343 75.4182L102.52 80.2796L111.827 100.489C111.888 100.62 111.919 100.763 111.919 100.907V107.071C111.919 107.26 111.866 107.445 111.765 107.605L102.674 122.03C102.573 122.189 102.52 122.374 102.52 122.563V124.113C102.52 124.874 101.703 125.357 101.037 124.989L79.2173 112.963C79.088 112.892 78.9445 112.85 78.7971 112.841L72.7546 112.462L66.6724 112.843C66.5507 112.851 66.4313 112.881 66.3204 112.931L62.1802 114.817L45.3744 121.928C44.9077 122.125 44.367 121.943 44.116 121.502L43.1807 119.862C43.0577 119.646 43.0193 119.393 43.0731 119.15L44.5561 112.462ZM153.042 144.253L149.922 177.857C149.913 177.955 149.89 178.052 149.852 178.143L143.897 192.691C143.743 193.066 143.377 193.312 142.971 193.312H130.935C130.382 193.312 129.935 192.864 129.935 192.312V187.64C129.935 187.088 129.487 186.64 128.935 186.64H128.585C128.033 186.64 127.585 186.192 127.585 185.64V183.951C127.585 183.664 127.708 183.391 127.923 183.201L137.037 175.164C137.253 174.974 137.376 174.701 137.376 174.414V154.938C137.376 154.879 137.371 154.82 137.36 154.762L132.715 128.768C132.689 128.627 132.634 128.493 132.552 128.375L119.538 109.579C119.422 109.412 119.36 109.214 119.36 109.01V100.931C119.36 100.771 119.322 100.614 119.249 100.472L107.722 78.1405C107.649 77.9987 107.611 77.8415 107.611 77.6819V71.6663C107.611 71.4014 107.716 71.1474 107.903 70.9599L117.223 61.6201C117.556 61.2865 118.077 61.2306 118.473 61.4858L128.427 67.8985C128.641 68.0362 128.794 68.2503 128.856 68.4971L131.47 78.9766C131.491 79.0599 131.522 79.1403 131.564 79.2156L140.062 94.7006C140.099 94.7674 140.128 94.8381 140.148 94.9115L143.618 107.275C143.634 107.332 143.655 107.387 143.681 107.44L154.867 130.632C154.954 130.812 154.984 131.014 154.955 131.212L153.042 144.253ZM32.0235 204.694L34.364 186.712C34.3702 186.664 34.38 186.616 34.3931 186.57L39.2593 169.315C39.3808 168.884 39.774 168.586 40.2217 168.586H54.5763C54.684 168.586 54.791 168.603 54.8931 168.638L60.2649 170.432C60.49 170.507 60.681 170.66 60.8038 170.863L68.3022 183.261C68.3966 183.417 68.4465 183.596 68.4465 183.779V209.565C68.4465 209.717 68.412 209.867 68.3456 210.003L60.7144 225.68C60.6481 225.816 60.6136 225.966 60.6136 226.118V237.865C60.6136 237.99 60.5903 238.113 60.5451 238.229L57.0888 247.081L50.9043 261.413C50.8503 261.538 50.8225 261.672 50.8225 261.809V293.993C50.8225 294.115 50.8002 294.236 50.7568 294.35L45.7772 307.401C45.7466 307.481 45.7264 307.565 45.7172 307.65L43.0296 332.66C43.0038 332.9 43.0657 333.141 43.2041 333.339L45.2243 336.231C45.5136 336.646 45.4485 337.211 45.0725 337.548L27.4002 353.413C27.1141 353.67 26.7061 353.74 26.3507 353.593L21.324 351.519C20.767 351.289 20.5383 350.623 20.8367 350.099L23.4073 345.591L31.9051 329.721C31.9828 329.576 32.0235 329.414 32.0235 329.249V253.36V204.694ZM62.3948 122.274H82.2574C82.4458 122.274 82.6303 122.327 82.7897 122.428L102.052 134.539C102.343 134.722 102.52 135.042 102.52 135.386V158.952C102.52 159.504 102.072 159.952 101.52 159.952H89.9124C89.7061 159.952 89.5048 160.015 89.3361 160.134L79.3191 167.198C79.1265 167.334 78.9881 167.534 78.9282 167.762L77.2586 174.12C77.1431 174.559 76.7458 174.866 76.2914 174.866H69.1798C68.7433 174.866 68.3573 174.582 68.2261 174.166L66.1853 167.69C66.1274 167.506 66.0176 167.343 65.8692 167.22L57.3662 160.181C57.1869 160.033 56.9614 159.952 56.7286 159.952H43.4586C43.1614 159.952 42.8797 159.819 42.6897 159.591L41.2945 157.913C41.1259 157.711 41.0437 157.455 41.0667 157.192C41.6947 149.989 42.8573 135.905 42.9791 131.548C42.9902 131.154 43.2204 130.805 43.5792 130.643L61.9844 122.362C62.1135 122.304 62.2533 122.274 62.3948 122.274ZM37.8235 71.3788L18.0637 104.77C17.9724 104.924 17.9243 105.1 17.9243 105.279V112.224C17.9243 112.381 17.8873 112.535 17.8163 112.675L5.10795 137.76C5.03698 137.9 5 138.055 5 138.212V186.387C5 186.553 5.04134 186.716 5.12029 186.862L9.80788 195.535C9.98254 195.858 10.3203 196.059 10.6876 196.059H17.4637C17.756 196.059 18.0337 195.931 18.2236 195.709L20.1863 193.414C20.2446 193.346 20.2935 193.271 20.3316 193.19L23.1222 187.247C23.2947 186.88 23.2281 186.445 22.9537 186.146L14.6903 177.145C14.5046 176.943 14.4103 176.673 14.4293 176.399L15.5667 160.062C15.5718 159.989 15.5851 159.916 15.6063 159.845L20.1917 144.528C20.2456 144.348 20.3491 144.187 20.4904 144.063L23.0666 141.804C23.2831 141.614 23.4073 141.34 23.4073 141.052V133.621C23.4073 133.39 23.4875 133.166 23.6342 132.987L37.7014 115.842C37.8296 115.686 37.9074 115.494 37.9247 115.293L41.0134 79.3108C41.0252 79.1732 41.0654 79.0395 41.1314 78.9182L49.8824 62.8408C50.4233 61.8471 49.1572 60.8606 48.3258 61.6279L38.0059 71.1533C37.9345 71.2192 37.873 71.2952 37.8235 71.3788Z" stroke="black"/>
</g>
<defs>
<filter id="filter0_d_854_113" x="0.5" y="0.5" width="158.967" height="373.847" filterUnits="userSpaceOnUse" color-interpolation-filters="sRGB">
<feFlood flood-opacity="0" result="BackgroundImageFix"/>
<feColorMatrix in="SourceAlpha" type="matrix" values="0 0 0 0 0 0 0 0 0 0 0 0 0 0 0 0 0 0 127 0" result="hardAlpha"/>
<feOffset dy="4"/>
<feGaussianBlur stdDeviation="2"/>
<feComposite in2="hardAlpha" operator="out"/>
<feColorMatrix type="matrix" values="0 0 0 0 0.87451 0 0 0 0 0.529412 0 0 0 0 0.0392157 0 0 0 0.12 0"/>
<feBlend mode="normal" in2="BackgroundImageFix" result="effect1_dropShadow_854_113"/>
<feBlend mode="normal" in="SourceGraphic" in2="effect1_dropShadow_854_113" result="shape"/>
</filter>
</defs>
</svg>
