<svg width="25" height="25" viewBox="0 0 25 25" fill="none" xmlns="http://www.w3.org/2000/svg">
<g clip-path="url(#clip0_1674_1847)">
<path fill-rule="evenodd" clip-rule="evenodd" d="M14.5612 17.3835C14.5617 17.4192 14.5626 17.4549 14.5626 17.4909C14.5625 17.8931 14.5293 18.2947 14.4633 18.6915C14.0645 18.7774 13.5624 18.8555 12.9571 18.9258C12.8718 19.2636 12.7563 19.593 12.612 19.91C13.0409 20.3432 13.3842 20.7178 13.6418 21.034C13.4282 21.4164 13.1805 21.7787 12.9018 22.1166C12.5131 21.9915 12.0389 21.8078 11.479 21.5656C11.2364 21.815 10.9721 22.0424 10.6893 22.245C10.8443 22.835 10.9543 23.3314 11.0194 23.7343C10.6437 23.9592 10.2483 24.1495 9.83818 24.3029C9.56424 24.0005 9.24539 23.6045 8.88165 23.1151C8.54657 23.2097 8.20368 23.2739 7.85711 23.3072C7.69657 23.8951 7.54381 24.3796 7.39885 24.7609C7.36313 24.7614 7.32742 24.7623 7.2917 24.7623C6.88936 24.7623 6.48769 24.7292 6.09078 24.6632C6.00487 24.2644 5.92677 23.7623 5.8565 23.157C5.51877 23.0717 5.18942 22.9561 4.87242 22.8117C4.43915 23.2406 4.06444 23.5839 3.74829 23.8415C3.36591 23.6279 3.00358 23.3803 2.66568 23.1017C2.79078 22.7131 2.97437 22.2389 3.21645 21.679C2.96702 21.4364 2.73964 21.1721 2.53701 20.8892C1.94701 21.044 1.4506 21.1541 1.04777 21.2194C0.822873 20.8435 0.632535 20.4481 0.479101 20.0379C0.781584 19.764 1.17752 19.4452 1.66691 19.0816C1.57243 18.7464 1.50823 18.4035 1.47507 18.0568C0.887213 17.896 0.402656 17.7432 0.0213971 17.5983C0.0208869 17.5626 0.0200195 17.5269 0.0200195 17.4909C0.0200483 17.0886 0.0532389 16.6871 0.119254 16.2903C0.518064 16.2044 1.02014 16.1263 1.62548 16.056C1.71073 15.7182 1.82625 15.3888 1.97063 15.0717C1.54172 14.6386 1.19844 14.2639 0.940785 13.9478C1.15444 13.5654 1.40212 13.2031 1.68084 12.8652C2.06944 12.9903 2.54368 13.1739 3.10354 13.4159C3.34616 13.1665 3.61047 12.9391 3.89334 12.7365C3.7383 12.1465 3.62825 11.6501 3.56318 11.2473C3.93892 11.0224 4.33428 10.832 4.74441 10.6785C5.01835 10.9811 5.3372 11.377 5.70094 11.8664C6.03611 11.7719 6.37908 11.7077 6.72573 11.6746C6.88631 11.0867 7.03907 10.6021 7.184 10.2209C7.21971 10.2204 7.25543 10.2195 7.2914 10.2195C7.69365 10.2195 8.09521 10.2527 8.49201 10.3187C8.57793 10.7176 8.65602 11.2197 8.72629 11.825C9.06408 11.9102 9.39351 12.0258 9.71058 12.1701C10.1437 11.7412 10.5184 11.3979 10.8345 11.1403C11.2169 11.3538 11.5792 11.6014 11.9171 11.8801C11.792 12.2687 11.6084 12.7429 11.3663 13.3028C11.6158 13.5455 11.8432 13.8099 12.0459 14.0928C12.6359 13.9378 13.1323 13.8277 13.5351 13.7627C13.76 14.1384 13.9503 14.5337 14.1037 14.9438C13.8012 15.2178 13.4053 15.5366 12.9159 15.9004C13.0103 16.2356 13.0745 16.5785 13.1077 16.9252C13.6957 17.0858 14.1802 17.2386 14.5612 17.3835ZM7.29119 13.5161C6.50504 13.5161 5.73655 13.7493 5.08289 14.186C4.42923 14.6228 3.91976 15.2436 3.61891 15.9699C3.31807 16.6962 3.23935 17.4954 3.39272 18.2664C3.54609 19.0375 3.92466 19.7457 4.48055 20.3016C5.03644 20.8575 5.74469 21.2361 6.51574 21.3895C7.28678 21.5428 8.08599 21.4641 8.8123 21.1633C9.53861 20.8624 10.1594 20.353 10.5962 19.6993C11.0329 19.0456 11.266 18.2771 11.266 17.491C11.2661 16.4368 10.8473 15.4258 10.1019 14.6804C9.35655 13.9349 8.34557 13.5161 7.2914 13.516L7.29119 13.5161ZM17.415 4.91741C17.4201 4.9442 17.4252 4.97088 17.4297 4.99782C17.4808 5.29958 17.5069 5.60503 17.5079 5.91109C17.2196 6.02626 16.8529 6.14871 16.4077 6.27843C16.3867 6.54268 16.342 6.80451 16.274 7.06073C16.6508 7.33107 16.956 7.56847 17.1895 7.77293C17.0779 8.08694 16.9381 8.39024 16.772 8.67915C16.4646 8.63473 16.0854 8.55733 15.6347 8.44696C15.4844 8.66493 15.315 8.86911 15.1286 9.05711C15.3199 9.47997 15.4656 9.83837 15.5656 10.1323C15.3124 10.3488 15.04 10.5419 14.7519 10.7091C14.5079 10.517 14.2183 10.2606 13.8832 9.93971C13.6438 10.0532 13.3946 10.145 13.1388 10.2139C13.0931 10.6754 13.0401 11.0583 12.9799 11.3628C12.9531 11.3679 12.9264 11.373 12.8995 11.3774C12.5978 11.4286 12.2923 11.4547 11.9862 11.4557C11.8711 11.1674 11.7486 10.8007 11.6189 10.3555C11.3546 10.3345 11.0928 10.2898 10.8366 10.2218C10.5663 10.5987 10.3289 10.9038 10.1244 11.1373C9.81041 11.0256 9.50711 10.8859 9.21818 10.7198C9.2626 10.4124 9.34 10.0332 9.45038 9.58247C9.23242 9.43216 9.02823 9.26281 8.84022 9.07639C8.41737 9.26772 8.05896 9.4134 7.76502 9.51344C7.54852 9.26017 7.35545 8.98777 7.18818 8.69961C7.38026 8.45566 7.63674 8.16612 7.95762 7.83099C7.84422 7.59159 7.75252 7.34249 7.68364 7.0867C7.22221 7.04099 6.83927 6.98801 6.53481 6.92777C6.52971 6.90099 6.52461 6.8743 6.52017 6.84736C6.46901 6.54561 6.44284 6.24015 6.44191 5.9341C6.73017 5.81889 7.09689 5.69644 7.54206 5.56675C7.56307 5.3025 7.60782 5.04068 7.67578 4.78446C7.29878 4.51405 6.99357 4.27663 6.76017 4.07221C6.87183 3.75819 7.01156 3.45487 7.17767 3.16594C7.48512 3.21036 7.86424 3.28777 8.31502 3.39818C8.46531 3.18022 8.63467 2.97603 8.82109 2.78803C8.62976 2.36514 8.48408 2.00673 8.38405 1.71282C8.6373 1.49633 8.90968 1.30326 9.19783 1.13599C9.4418 1.32806 9.73136 1.58454 10.0665 1.90542C10.3059 1.79193 10.5551 1.70015 10.8109 1.63119C10.8566 1.16976 10.9096 0.786819 10.9698 0.482363C10.9966 0.477261 11.0232 0.472159 11.0502 0.46767C11.3519 0.416533 11.6574 0.390356 11.9634 0.389404C12.0786 0.67767 12.2011 1.04439 12.3308 1.48956C12.595 1.51055 12.8569 1.5553 13.1131 1.62328C13.3834 1.24645 13.6208 0.941275 13.8253 0.707772C14.1393 0.819418 14.4426 0.95915 14.7316 1.12527C14.6871 1.43272 14.6097 1.81184 14.4993 2.26262C14.7173 2.4129 14.9215 2.58226 15.1095 2.76869C15.5324 2.57736 15.8908 2.43168 16.1847 2.33165C16.4012 2.58491 16.5942 2.8573 16.7615 3.14548C16.5694 3.38946 16.3129 3.679 15.9921 4.0141C16.1056 4.25352 16.1973 4.50265 16.2663 4.75849C16.7276 4.8042 17.1105 4.85718 17.415 4.91741ZM11.4694 2.94068C10.8796 3.04067 10.3328 3.31329 9.89795 3.72407C9.46314 4.13485 9.1599 4.66534 9.02659 5.24846C8.89327 5.83158 8.93586 6.44113 9.14898 7.00004C9.36209 7.55896 9.73615 8.04212 10.2239 8.38844C10.7116 8.73476 11.291 8.92868 11.889 8.94568C12.4869 8.96268 13.0764 8.802 13.583 8.48394C14.0896 8.16589 14.4905 7.70476 14.735 7.15886C14.9796 6.61296 15.0567 6.00681 14.9568 5.41706C14.8227 4.62621 14.3799 3.92102 13.7259 3.45661C13.0719 2.9922 12.2602 2.80661 11.4694 2.94068ZM24.8714 14.7535C24.8765 14.7802 24.8816 14.8069 24.8861 14.8338C24.9372 15.1356 24.9634 15.4411 24.9644 15.7471C24.6761 15.8622 24.3094 15.9847 23.8642 16.1145C23.8432 16.3787 23.7984 16.6405 23.7304 16.8968C24.1073 17.1671 24.4125 17.4045 24.6459 17.6089C24.5343 17.923 24.3946 18.2263 24.2284 18.5152C23.921 18.4708 23.5419 18.3934 23.0911 18.283C22.9408 18.501 22.7715 18.7051 22.585 18.8931C22.7763 19.316 22.922 19.6744 23.0221 19.9683C22.7689 20.1849 22.4965 20.3779 22.2083 20.5452C21.9644 20.3531 21.6748 20.0966 21.3397 19.7757C21.1002 19.8892 20.8511 19.981 20.5953 20.05C20.5496 20.5114 20.4966 20.8943 20.4363 21.1988C20.4096 21.2039 20.3829 21.209 20.3559 21.2135C20.0542 21.2646 19.7487 21.2908 19.4427 21.2917C19.3275 21.0034 19.205 20.6367 19.0753 20.1915C18.8111 20.1705 18.5493 20.1258 18.2931 20.0578C18.0227 20.4347 17.7853 20.7398 17.5809 20.9733C17.2669 20.8617 16.9635 20.722 16.6746 20.5558C16.719 20.2484 16.7964 19.8693 16.9069 19.4185C16.6889 19.2682 16.4847 19.0989 16.2967 18.9124C15.8738 19.1037 15.5154 19.2494 15.2214 19.3495C15.005 19.0962 14.8119 18.8238 14.6446 18.5357C14.8367 18.2917 15.0932 18.0021 15.4141 17.667C15.3006 17.4276 15.2088 17.1785 15.1399 16.9226C14.6784 16.8769 14.2955 16.8239 13.991 16.7637C13.9859 16.737 13.9808 16.7103 13.9763 16.6833C13.9252 16.3816 13.8991 16.0761 13.8981 15.7701C14.1864 15.6549 14.5531 15.5324 14.9983 15.4027C15.0193 15.1385 15.064 14.8766 15.132 14.6204C14.7552 14.3501 14.45 14.1127 14.2165 13.9082C14.3281 13.5942 14.4679 13.2909 14.634 13.002C14.9414 13.0464 15.3205 13.1238 15.7713 13.2342C15.9216 13.0162 16.091 12.8121 16.2774 12.624C16.0861 12.2012 15.9404 11.8428 15.8403 11.5488C16.0936 11.3323 16.366 11.1393 16.6542 10.972C16.8981 11.1641 17.1877 11.4206 17.5228 11.7414C17.7622 11.6279 18.0114 11.5362 18.2672 11.4672C18.3129 11.0058 18.3658 10.6228 18.4261 10.3184C18.4529 10.3133 18.4796 10.3082 18.5065 10.3037C18.8083 10.2526 19.1137 10.2264 19.4198 10.2255C19.5349 10.5137 19.6574 10.8805 19.7871 11.3256C20.0513 11.3466 20.3131 11.3914 20.5694 11.4594C20.8398 11.0825 21.0772 10.7773 21.2816 10.5438C21.5956 10.6555 21.8989 10.7952 22.1878 10.9613C22.1434 11.2688 22.066 11.6479 21.9556 12.0987C22.1736 12.249 22.3778 12.4183 22.5658 12.6048C22.9886 12.4134 23.347 12.2678 23.641 12.1677C23.8575 12.421 24.0505 12.6934 24.2178 12.9815C24.0258 13.2255 23.7693 13.515 23.4484 13.8502C23.5619 14.0896 23.6536 14.3387 23.7226 14.5946C24.1839 14.6403 24.5668 14.6933 24.8713 14.7535H24.8714ZM18.9256 12.7767C18.3359 12.8767 17.789 13.1494 17.3542 13.5602C16.9195 13.971 16.6162 14.5015 16.4829 15.0846C16.3496 15.6677 16.3923 16.2773 16.6054 16.8362C16.8185 17.3951 17.1926 17.8783 17.6803 18.2246C18.1681 18.5709 18.7475 18.7648 19.3454 18.7818C19.9434 18.7988 20.5329 18.6381 21.0395 18.32C21.5461 18.0019 21.947 17.5408 22.1915 16.9949C22.4361 16.449 22.5132 15.8428 22.4132 15.2531C22.3468 14.8615 22.204 14.4868 21.9928 14.1504C21.7816 13.814 21.5062 13.5225 21.1823 13.2925C20.8585 13.0626 20.4925 12.8987 20.1053 12.8102C19.7181 12.7217 19.3172 12.7103 18.9256 12.7767Z" fill="#DF870A"/>
</g>
<defs>
<clipPath id="clip0_1674_1847">
<rect width="25" height="25" fill="white"/>
</clipPath>
</defs>
</svg>
